<?xml version="1.0" standalone="no"?>
<!DOCTYPE svg PUBLIC "-//W3C//DTD SVG 20010904//EN"
 "http://www.w3.org/TR/2001/REC-SVG-20010904/DTD/svg10.dtd">
<svg version="1.0" xmlns="http://www.w3.org/2000/svg"
 width="512.000000pt" height="512.000000pt" viewBox="0 0 512.000000 512.000000"
 preserveAspectRatio="xMidYMid meet">

<g transform="translate(0.000000,512.000000) scale(0.100000,-0.100000)"
fill="#000000" stroke="none">
<path d="M2185 5108 c-157 -18 -356 -69 -386 -99 -37 -37 -16 -110 36 -123 15
-4 54 2 93 13 250 75 520 85 784 30 276 -57 533 -193 744 -392 208 -197 331
-390 423 -662 22 -66 48 -126 58 -132 40 -30 107 -5 118 45 7 34 -49 209 -109
337 -312 665 -1031 1067 -1761 983z"/>
<path d="M1489 4872 c-115 -68 -221 -152 -335 -266 -324 -326 -504 -758 -504
-1213 0 -165 14 -277 55 -438 51 -204 175 -472 242 -525 44 -35 91 -22 113 29
11 27 10 36 -14 78 -118 215 -178 365 -210 524 -57 279 -42 546 45 816 110
341 334 635 629 826 114 74 140 99 140 136 0 34 -39 71 -74 71 -12 0 -51 -17
-87 -38z"/>
<path d="M2215 4693 c-11 -2 -56 -11 -100 -19 -228 -44 -461 -165 -636 -331
-183 -175 -304 -376 -369 -613 -28 -101 -47 -244 -41 -312 2 -28 38 -58 70
-58 54 0 72 26 82 119 21 190 74 356 158 499 181 307 504 517 865 562 277 35
545 -31 801 -199 62 -41 85 -51 105 -46 41 11 60 34 60 77 0 36 -4 41 -67 88
-140 102 -357 192 -542 224 -87 15 -332 21 -386 9z"/>
<path d="M2329 4351 c-22 -18 -24 -27 -27 -135 -3 -100 -6 -116 -20 -116 -32
0 -117 -47 -168 -93 -168 -152 -174 -419 -12 -580 74 -74 144 -106 268 -122
102 -13 130 -25 183 -74 129 -119 79 -347 -88 -404 -157 -54 -307 39 -333 206
-5 31 -17 66 -27 77 -24 27 -79 26 -106 -1 -19 -19 -21 -30 -17 -89 7 -87 42
-165 109 -235 51 -54 152 -115 191 -115 16 0 18 -9 18 -94 0 -114 11 -150 52
-167 26 -10 35 -10 57 2 41 23 51 55 51 162 0 86 2 97 18 97 61 0 200 104 248
186 91 155 63 358 -65 483 -69 68 -140 100 -253 116 -115 16 -136 24 -189 72
-160 144 -72 410 142 431 113 11 238 -81 254 -187 11 -71 26 -111 46 -121 33
-18 80 -8 103 23 19 25 19 32 8 99 -27 154 -148 294 -279 323 l-33 7 0 92 c0
101 -12 151 -40 166 -29 16 -66 12 -91 -9z"/>
<path d="M3302 4207 c-34 -36 -28 -72 27 -151 274 -398 282 -907 19 -1307
-215 -328 -572 -519 -969 -519 -309 0 -576 106 -801 318 -144 136 -243 298
-312 512 -34 103 -46 127 -68 139 -35 20 -77 6 -98 -31 -14 -25 -13 -35 7
-112 130 -503 546 -880 1067 -968 115 -20 344 -14 463 11 539 113 940 525
1039 1068 21 115 20 330 -1 448 -21 118 -76 282 -126 374 -53 98 -128 209
-153 227 -30 21 -70 17 -94 -9z"/>
<path d="M3988 3566 c-27 -20 -37 -58 -31 -122 14 -150 -36 -444 -103 -615
-182 -463 -529 -791 -994 -942 -169 -55 -280 -72 -475 -72 -195 0 -291 13
-455 62 -245 73 -441 187 -643 372 -63 58 -83 71 -111 71 -56 0 -88 -57 -61
-109 35 -68 288 -264 465 -360 l75 -41 -213 0 c-167 0 -219 -3 -241 -15 -47
-24 -56 -78 -18 -113 l23 -22 1329 -2 1330 -3 43 -25 c63 -36 97 -98 97 -175
0 -71 -21 -112 -78 -159 l-39 -31 -1416 -3 c-780 -1 -1432 0 -1450 3 -18 3
-51 22 -72 41 -98 89 -89 228 20 322 43 37 52 64 33 104 -27 56 -91 49 -164
-19 -67 -63 -101 -135 -107 -229 -13 -199 103 -343 301 -375 34 -6 63 -11 64
-13 1 -1 -7 -27 -19 -57 -31 -76 -30 -205 0 -273 12 -27 22 -52 22 -56 0 -4
-28 -9 -63 -12 -165 -10 -297 -150 -305 -324 -7 -132 44 -244 112 -244 38 0
76 34 76 68 0 13 -7 39 -16 60 -21 48 -22 148 -2 187 22 40 56 71 100 90 33
13 197 15 1443 15 1246 0 1410 -2 1443 -15 79 -33 115 -91 116 -180 0 -79 -31
-137 -94 -173 l-45 -27 -1403 -5 c-1375 -5 -1404 -5 -1418 -24 -23 -33 -18
-82 12 -105 l27 -21 1386 0 c1483 0 1443 -1 1525 49 38 24 107 96 126 132 22
40 40 122 40 179 -1 47 -16 108 -44 170 -5 13 7 18 63 26 38 6 90 21 115 34
89 43 176 156 176 229 0 20 -9 36 -26 50 -49 38 -92 23 -125 -42 -28 -55 -46
-75 -91 -98 -36 -18 -84 -19 -1460 -19 -1367 0 -1425 1 -1458 19 -19 10 -48
35 -64 55 -57 69 -46 208 21 268 55 50 -12 48 1503 48 1535 0 1442 3 1512 -55
37 -32 72 -32 103 0 37 36 33 74 -12 117 -51 49 -107 75 -189 89 -38 6 -70 13
-72 14 -2 2 6 22 18 45 12 24 24 70 27 109 13 161 -60 292 -202 358 l-60 28
-398 5 -399 5 69 33 c162 79 316 195 464 350 311 323 479 745 479 1200 0 146
-17 183 -83 182 -12 0 -30 -6 -39 -14z"/>
</g>
</svg>
